{
  "accessors": [
    {
      "bufferView": 2,
      "componentType": 5126,
      "count": 65532,
      "max": [
        0.24643699824810028,
        1.0582480430603027,
        0.3155311942100525
      ],
      "min": [
        -0.2471890151500702,
        0.0013270378112792969,
        -0.31561416387557983
      ],
      "type": "VEC3"
    },
    {
      "bufferView": 2,
      "byteOffset": 786384,
      "componentType": 5126,
      "count": 65532,
      "max": [
        0.999995768070221,
        0.9999907612800598,
        0.9999889731407166
      ],
      "min": [
        -0.999991774559021,
        -0.9580676555633545,
        -0.9999809861183167
      ],
      "type": "VEC3"
    },
    {
      "bufferView": 1,
      "componentType": 5126,
      "count": 65532,
      "max": [
        0.9918180108070374,
        0.9920399785041809
      ],
      "min": [
        0.00802099984139204,
        0.008157014846801758
      ],
      "type": "VEC2"
    },
    {
      "bufferView": 0,
      "componentType": 5125,
      "count": 366471,
      "type": "SCALAR"
    },
    {
      "bufferView": 2,
      "byteOffset": 1572768,
      "componentType": 5126,
      "count": 65532,
      "max": [
        0.24798700213432312,
        0.9273830056190491,
        0.2725291848182678
      ],
      "min": [
        -0.24802199006080627,
        0.0,
        -0.30067676305770874
      ],
      "type": "VEC3"
    },
    {
      "bufferView": 2,
      "byteOffset": 2359152,
      "componentType": 5126,
      "count": 65532,
      "max": [
        0.9999979734420776,
        0.9996634721755981,
        0.9999854564666748
      ],
      "min": [
        -0.999950110912323,
        -0.8790243268013,
        -0.9999253749847412
      ],
      "type": "VEC3"
    },
    {
      "bufferView": 1,
      "byteOffset": 524256,
      "componentType": 5126,
      "count": 65532,
      "max": [
        0.9717829823493958,
        0.9920589923858643
      ],
      "min": [
        0.007957999594509602,
        0.17888903617858887
      ],
      "type": "VEC2"
    },
    {
      "bufferView": 0,
      "byteOffset": 1465884,
      "componentType": 5125,
      "count": 367956,
      "type": "SCALAR"
    },
    {
      "bufferView": 2,
      "byteOffset": 3145536,
      "componentType": 5126,
      "count": 30225,
      "max": [
        0.24802199006080627,
        1.0376620292663574,
        0.3142161965370178
      ],
      "min": [
        -0.2088339924812317,
        0.0006500482559204102,
        -0.3129498362541199
      ],
      "type": "VEC3"
    },
    {
      "bufferView": 2,
      "byteOffset": 3508236,
      "componentType": 5126,
      "count": 30225,
      "max": [
        0.9999979734420776,
        0.999999463558197,
        0.9999816417694092
      ],
      "min": [
        -0.999995231628418,
        -0.8732378482818604,
        -0.9999655485153198
      ],
      "type": "VEC3"
    },
    {
      "bufferView": 1,
      "byteOffset": 1048512,
      "componentType": 5126,
      "count": 30225,
      "max": [
        0.9862210154533386,
        0.9919620156288147
      ],
      "min": [
        0.007992999628186226,
        0.020290017127990723
      ],
      "type": "VEC2"
    },
    {
      "bufferView": 0,
      "byteOffset": 2937708,
      "componentType": 5125,
      "count": 169755,
      "type": "SCALAR"
    },
    {
      "bufferView": 2,
      "byteOffset": 3870936,
      "componentType": 5126,
      "count": 65532,
      "max": [
        0.244392991065979,
        1.0595049858093262,
        0.31561416387557983
      ],
      "min": [
        -0.2475079894065857,
        0.0033500194549560547,
        -0.3142208456993103
      ],
      "type": "VEC3"
    },
    {
      "bufferView": 2,
      "byteOffset": 4657320,
      "componentType": 5126,
      "count": 65532,
      "max": [
        0.9999811053276062,
        0.9999987483024597,
        0.9999889731407166
      ],
      "min": [
        -0.9999755024909973,
        -0.9992188811302185,
        -0.9999852180480957
      ],
      "type": "VEC3"
    },
    {
      "bufferView": 1,
      "byteOffset": 1290312,
      "componentType": 5126,
      "count": 65532,
      "max": [
        0.9911670088768005,
        0.9920600056648254
      ],
      "min": [
        0.007934999652206898,
        0.2763580083847046
      ],
      "type": "VEC2"
    },
    {
      "bufferView": 0,
      "byteOffset": 3616728,
      "componentType": 5125,
      "count": 363795,
      "type": "SCALAR"
    },
    {
      "bufferView": 2,
      "byteOffset": 5443704,
      "componentType": 5126,
      "count": 11671,
      "max": [
        0.1724569946527481,
        1.0487040281295776,
        0.0860101580619812
      ],
      "min": [
        -0.23396900296211243,
        0.13193702697753906,
        -0.31400686502456665
      ],
      "type": "VEC3"
    },
    {
      "bufferView": 2,
      "byteOffset": 5583756,
      "componentType": 5126,
      "count": 11671,
      "max": [
        0.9996343851089478,
        0.9999129772186279,
        0.9999737739562988
      ],
      "min": [
        -0.9999673366546631,
        -0.9341087341308594,
        -0.9999667406082153
      ],
      "type": "VEC3"
    },
    {
      "bufferView": 1,
      "byteOffset": 1814568,
      "componentType": 5126,
      "count": 11671,
      "max": [
        0.985988974571228,
        0.9920409917831421
      ],
      "min": [
        0.008016999810934067,
        0.31856900453567505
      ],
      "type": "VEC2"
    },
    {
      "bufferView": 0,
      "byteOffset": 5071908,
      "componentType": 5125,
      "count": 63360,
      "type": "SCALAR"
    }
  ],
  "asset": {
    "extras": {
      "author": "Nate Loper  🗺️ ⛏🏺 (https://sketchfab.com/arizonaguide)",
      "license": "CC-BY-4.0 (http://creativecommons.org/licenses/by/4.0/)",
      "source": "https://sketchfab.com/3d-models/thutmose-iii-statue-from-karnak-temple-egypt-a906d679a1bb4862b21f13d98d2362c3",
      "title": "Thutmose III Statue from Karnak Temple, Egypt"
    },
    "generator": "Sketchfab-14.86.0",
    "version": "2.0"
  },
  "bufferViews": [
    {
      "buffer": 0,
      "byteLength": 5325348,
      "name": "floatBufferViews",
      "target": 34963
    },
    {
      "buffer": 0,
      "byteLength": 1907936,
      "byteOffset": 5325348,
      "byteStride": 8,
      "name": "floatBufferViews",
      "target": 34962
    },
    {
      "buffer": 0,
      "byteLength": 5723808,
      "byteOffset": 7233284,
      "byteStride": 12,
      "name": "floatBufferViews",
      "target": 34962
    }
  ],
  "buffers": [
    {
      "byteLength": 12957092,
      "uri": "scene.bin"
    }
  ],
  "extensionsUsed": [
    "KHR_materials_unlit"
  ],
  "images": [
    {
      "uri": "textures/material0000_baseColor.jpeg"
    },
    {
      "uri": "textures/material0001_baseColor.jpeg"
    }
  ],
  "materials": [
    {
      "extensions": {
        "KHR_materials_unlit": {}
      },
      "name": "material0000",
      "pbrMetallicRoughness": {
        "baseColorTexture": {
          "index": 0
        },
        "metallicFactor": 0.0
      }
    },
    {
      "extensions": {
        "KHR_materials_unlit": {}
      },
      "name": "material0001",
      "pbrMetallicRoughness": {
        "baseColorTexture": {
          "index": 1
        },
        "metallicFactor": 0.0
      }
    }
  ],
  "meshes": [
    {
      "name": "scan_0",
      "primitives": [
        {
          "attributes": {
            "NORMAL": 1,
            "POSITION": 0,
            "TEXCOORD_0": 2
          },
          "indices": 3,
          "material": 0,
          "mode": 4
        }
      ]
    },
    {
      "name": "scan_0",
      "primitives": [
        {
          "attributes": {
            "NORMAL": 5,
            "POSITION": 4,
            "TEXCOORD_0": 6
          },
          "indices": 7,
          "material": 0,
          "mode": 4
        }
      ]
    },
    {
      "name": "scan_0",
      "primitives": [
        {
          "attributes": {
            "NORMAL": 9,
            "POSITION": 8,
            "TEXCOORD_0": 10
          },
          "indices": 11,
          "material": 0,
          "mode": 4
        }
      ]
    },
    {
      "name": "scan_1",
      "primitives": [
        {
          "attributes": {
            "NORMAL": 13,
            "POSITION": 12,
            "TEXCOORD_0": 14
          },
          "indices": 15,
          "material": 1,
          "mode": 4
        }
      ]
    },
    {
      "name": "scan_1",
      "primitives": [
        {
          "attributes": {
            "NORMAL": 17,
            "POSITION": 16,
            "TEXCOORD_0": 18
          },
          "indices": 19,
          "material": 1,
          "mode": 4
        }
      ]
    }
  ],
  "nodes": [
    {
      "children": [
        1
      ],
      "matrix": [
        1.0,
        0.0,
        0.0,
        0.0,
        0.0,
        2.220446049250313e-16,
        -1.0,
        0.0,
        0.0,
        1.0,
        2.220446049250313e-16,
        0.0,
        0.0,
        0.0,
        0.0,
        1.0
      ],
      "name": "Sketchfab_model"
    },
    {
      "children": [
        2
      ],
      "matrix": [
        1.0,
        0.0,
        0.0,
        0.0,
        0.0,
        2.220446049250313e-16,
        1.0,
        0.0,
        0.0,
        -1.0,
        2.220446049250313e-16,
        0.0,
        0.0,
        0.0,
        0.0,
        1.0
      ],
      "name": "USDRoot"
    },
    {
      "children": [
        3
      ],
      "name": "hbTnLaQfKE9sb8f5o9JD"
    },
    {
      "children": [
        4,
        5,
        6,
        7,
        8
      ],
      "name": "Geom"
    },
    {
      "mesh": 0,
      "name": "scan_0"
    },
    {
      "mesh": 1,
      "name": "scan_0"
    },
    {
      "mesh": 2,
      "name": "scan_0"
    },
    {
      "mesh": 3,
      "name": "scan_1"
    },
    {
      "mesh": 4,
      "name": "scan_1"
    }
  ],
  "samplers": [
    {
      "magFilter": 9729,
      "minFilter": 9987,
      "wrapS": 10497,
      "wrapT": 10497
    }
  ],
  "scene": 0,
  "scenes": [
    {
      "name": "Sketchfab_Scene",
      "nodes": [
        0
      ]
    }
  ],
  "textures": [
    {
      "sampler": 0,
      "source": 0
    },
    {
      "sampler": 0,
      "source": 1
    }
  ]
}
