{
  "accessors": [
    {
      "bufferView": 2,
      "componentType": 5126,
      "count": 20550,
      "max": [
        1.0989199876785278,
        -0.5408949851989746,
        0.4176799952983856
      ],
      "min": [
        -1.0690499544143677,
        -3.4317400455474854,
        -0.15457400679588318
      ],
      "type": "VEC3"
    },
    {
      "bufferView": 2,
      "byteOffset": 246600,
      "componentType": 5126,
      "count": 20550,
      "max": [
        0.9931748509407043,
        1.0,
        0.9998631477355957
      ],
      "min": [
        -0.9989033937454224,
        -1.0,
        -0.9999998211860657
      ],
      "type": "VEC3"
    },
    {
      "bufferView": 3,
      "componentType": 5126,
      "count": 20550,
      "max": [
        0.7529411911964417,
        0.7529411911964417,
        0.7529411911964417,
        1.0
      ],
      "min": [
        0.7529411911964417,
        0.7529411911964417,
        0.7529411911964417,
        1.0
      ],
      "type": "VEC4"
    },
    {
      "bufferView": 1,
      "componentType": 5126,
      "count": 20550,
      "max": [
        0.997763991355896,
        0.9986580014228821
      ],
      "min": [
        0.001234999974258244,
        0.004315999802201986
      ],
      "type": "VEC2"
    },
    {
      "bufferView": 0,
      "componentType": 5125,
      "count": 85284,
      "type": "SCALAR"
    },
    {
      "bufferView": 2,
      "byteOffset": 493200,
      "componentType": 5126,
      "count": 29402,
      "max": [
        1.0973299741744995,
        -0.538739025592804,
        0.4185509979724884
      ],
      "min": [
        -1.0793999433517456,
        -3.525670051574707,
        -0.13988900184631348
      ],
      "type": "VEC3"
    },
    {
      "bufferView": 2,
      "byteOffset": 846024,
      "componentType": 5126,
      "count": 29402,
      "max": [
        0.9997205138206482,
        0.9961923956871033,
        0.9999907612800598
      ],
      "min": [
        -0.9965389966964722,
        -0.9978524446487427,
        -0.9999993443489075
      ],
      "type": "VEC3"
    },
    {
      "bufferView": 3,
      "byteOffset": 328800,
      "componentType": 5126,
      "count": 29402,
      "max": [
        0.7529411911964417,
        0.7529411911964417,
        0.7529411911964417,
        1.0
      ],
      "min": [
        0.7529411911964417,
        0.7529411911964417,
        0.7529411911964417,
        1.0
      ],
      "type": "VEC4"
    },
    {
      "bufferView": 1,
      "byteOffset": 164400,
      "componentType": 5126,
      "count": 29402,
      "max": [
        1.9985419511795044,
        0.9987760186195374
      ],
      "min": [
        1.001222014427185,
        0.0013299999991431832
      ],
      "type": "VEC2"
    },
    {
      "bufferView": 0,
      "byteOffset": 341136,
      "componentType": 5125,
      "count": 135639,
      "type": "SCALAR"
    },
    {
      "bufferView": 2,
      "byteOffset": 1198848,
      "componentType": 5126,
      "count": 2521,
      "max": [
        1.0892000198364258,
        -0.5730829834938049,
        0.3901050090789795
      ],
      "min": [
        -1.0705000162124634,
        -3.460239887237549,
        -0.03704100102186203
      ],
      "type": "VEC3"
    },
    {
      "bufferView": 2,
      "byteOffset": 1229100,
      "componentType": 5126,
      "count": 2521,
      "max": [
        0.9821235537528992,
        0.9892415404319763,
        0.9997093081474304
      ],
      "min": [
        -0.995531439781189,
        -0.9289656281471252,
        -0.9999945759773254
      ],
      "type": "VEC3"
    },
    {
      "bufferView": 3,
      "byteOffset": 799232,
      "componentType": 5126,
      "count": 2521,
      "max": [
        0.7529411911964417,
        0.7529411911964417,
        0.7529411911964417,
        1.0
      ],
      "min": [
        0.7529411911964417,
        0.7529411911964417,
        0.7529411911964417,
        1.0
      ],
      "type": "VEC4"
    },
    {
      "bufferView": 1,
      "byteOffset": 399616,
      "componentType": 5126,
      "count": 2521,
      "max": [
        2.193979024887085,
        0.9986569881439209
      ],
      "min": [
        2.0012240409851074,
        0.0019369999645277858
      ],
      "type": "VEC2"
    },
    {
      "bufferView": 0,
      "byteOffset": 883692,
      "componentType": 5125,
      "count": 10014,
      "type": "SCALAR"
    }
  ],
  "asset": {
    "extras": {
      "author": "gabriele.l (https://sketchfab.com/gabriele.l)",
      "license": "CC-BY-4.0 (http://creativecommons.org/licenses/by/4.0/)",
      "source": "https://sketchfab.com/3d-models/giza-plateau-drone-video-20fa1b7c608a43e1814c3744641732a4",
      "title": "Giza Plateau - drone video"
    },
    "generator": "Sketchfab-12.66.0",
    "version": "2.0"
  },
  "bufferViews": [
    {
      "buffer": 0,
      "byteLength": 923748,
      "name": "floatBufferViews",
      "target": 34963
    },
    {
      "buffer": 0,
      "byteLength": 419784,
      "byteOffset": 923748,
      "byteStride": 8,
      "name": "floatBufferViews",
      "target": 34962
    },
    {
      "buffer": 0,
      "byteLength": 1259352,
      "byteOffset": 1343532,
      "byteStride": 12,
      "name": "floatBufferViews",
      "target": 34962
    },
    {
      "buffer": 0,
      "byteLength": 839568,
      "byteOffset": 2602884,
      "byteStride": 16,
      "name": "floatBufferViews",
      "target": 34962
    }
  ],
  "buffers": [
    {
      "byteLength": 3442452,
      "uri": "scene.bin"
    }
  ],
  "extensionsUsed": [
    "KHR_materials_unlit"
  ],
  "images": [
    {
      "uri": "textures/material_0_baseColor.png"
    },
    {
      "uri": "textures/material_1_baseColor.png"
    },
    {
      "uri": "textures/material_2_baseColor.png"
    }
  ],
  "materials": [
    {
      "doubleSided": true,
      "extensions": {
        "KHR_materials_unlit": {}
      },
      "name": "material_0",
      "pbrMetallicRoughness": {
        "baseColorTexture": {
          "index": 0
        },
        "metallicFactor": 0.0
      }
    },
    {
      "doubleSided": true,
      "extensions": {
        "KHR_materials_unlit": {}
      },
      "name": "material_1",
      "pbrMetallicRoughness": {
        "baseColorTexture": {
          "index": 1
        },
        "metallicFactor": 0.0
      }
    },
    {
      "doubleSided": true,
      "extensions": {
        "KHR_materials_unlit": {}
      },
      "name": "material_2",
      "pbrMetallicRoughness": {
        "baseColorTexture": {
          "index": 2
        },
        "metallicFactor": 0.0
      }
    }
  ],
  "meshes": [
    {
      "name": "Object_0",
      "primitives": [
        {
          "attributes": {
            "COLOR_0": 2,
            "NORMAL": 1,
            "POSITION": 0,
            "TEXCOORD_0": 3
          },
          "indices": 4,
          "material": 0,
          "mode": 4
        }
      ]
    },
    {
      "name": "Object_1",
      "primitives": [
        {
          "attributes": {
            "COLOR_0": 7,
            "NORMAL": 6,
            "POSITION": 5,
            "TEXCOORD_0": 8
          },
          "indices": 9,
          "material": 1,
          "mode": 4
        }
      ]
    },
    {
      "name": "Object_2",
      "primitives": [
        {
          "attributes": {
            "COLOR_0": 12,
            "NORMAL": 11,
            "POSITION": 10,
            "TEXCOORD_0": 13
          },
          "indices": 14,
          "material": 2,
          "mode": 4
        }
      ]
    }
  ],
  "nodes": [
    {
      "children": [
        1
      ],
      "matrix": [
        41.43101042808348,
        0.2692919995634916,
        3.403317826930248,
        0.0,
        -3.4139552383980174,
        3.268068702891545,
        41.301919381578045,
        0.0,
        -1.6045573239707541e-15,
        -41.44189810243461,
        3.27914500359906,
        0.0,
        -0.1668570637702942,
        0.42326104640960605,
        4.040025234222412,
        1.0
      ],
      "name": "Sketchfab_model"
    },
    {
      "children": [
        2,
        3,
        4
      ],
      "name": "giza_test.obj.cleaner.materialmerger.gles"
    },
    {
      "mesh": 0,
      "name": "Object_2"
    },
    {
      "mesh": 1,
      "name": "Object_3"
    },
    {
      "mesh": 2,
      "name": "Object_4"
    }
  ],
  "samplers": [
    {
      "magFilter": 9729,
      "minFilter": 9987,
      "wrapS": 10497,
      "wrapT": 10497
    }
  ],
  "scene": 0,
  "scenes": [
    {
      "name": "Sketchfab_Scene",
      "nodes": [
        0
      ]
    }
  ],
  "textures": [
    {
      "sampler": 0,
      "source": 0
    },
    {
      "sampler": 0,
      "source": 1
    },
    {
      "sampler": 0,
      "source": 2
    }
  ]
}
