{
  "accessors": [
    {
      "bufferView": 2,
      "componentType": 5126,
      "count": 1325,
      "max": [
        1.0,
        0.11207800358533859,
        0.13231399655342102
      ],
      "min": [
        -1.0,
        -0.11207800358533859,
        -0.13231399655342102
      ],
      "type": "VEC3"
    },
    {
      "bufferView": 2,
      "byteOffset": 15900,
      "componentType": 5126,
      "count": 1325,
      "max": [
        0.9994226694107056,
        0.9999240040779114,
        0.9999951124191284
      ],
      "min": [
        -1.0,
        -0.9999240040779114,
        -0.9957684874534607
      ],
      "type": "VEC3"
    },
    {
      "bufferView": 3,
      "componentType": 5126,
      "count": 1325,
      "max": [
        0.9446136355400085,
        1.0,
        0.999948263168335,
        1.0
      ],
      "min": [
        -0.9999493956565857,
        -0.9999997019767761,
        -0.9999490976333618,
        -1.0
      ],
      "type": "VEC4"
    },
    {
      "bufferView": 1,
      "componentType": 5126,
      "count": 1325,
      "max": [
        0.8792440295219421,
        0.9997599720954895
      ],
      "min": [
        0.00024047000624705106,
        0.00024047000624705106
      ],
      "type": "VEC2"
    },
    {
      "bufferView": 0,
      "componentType": 5125,
      "count": 6645,
      "type": "SCALAR"
    }
  ],
  "asset": {
    "extras": {
      "author": "Tom_Bentkowski (https://sketchfab.com/TBentkowski)",
      "license": "CC-BY-4.0 (http://creativecommons.org/licenses/by/4.0/)",
      "source": "https://sketchfab.com/3d-models/tutankhamuns-meteoric-dagger-1323-bce-505fdc27fc1a4fcaa0e2239fb4b36f99",
      "title": "Tutankhamun's Meteoric Dagger 1323 BCE"
    },
    "generator": "Sketchfab-12.66.0",
    "version": "2.0"
  },
  "bufferViews": [
    {
      "buffer": 0,
      "byteLength": 26580,
      "name": "floatBufferViews",
      "target": 34963
    },
    {
      "buffer": 0,
      "byteLength": 10600,
      "byteOffset": 26580,
      "byteStride": 8,
      "name": "floatBufferViews",
      "target": 34962
    },
    {
      "buffer": 0,
      "byteLength": 31800,
      "byteOffset": 37180,
      "byteStride": 12,
      "name": "floatBufferViews",
      "target": 34962
    },
    {
      "buffer": 0,
      "byteLength": 21200,
      "byteOffset": 68980,
      "byteStride": 16,
      "name": "floatBufferViews",
      "target": 34962
    }
  ],
  "buffers": [
    {
      "byteLength": 90180,
      "uri": "scene.bin"
    }
  ],
  "images": [
    {
      "uri": "textures/1001_baseColor.jpeg"
    },
    {
      "uri": "textures/1001_metallicRoughness.png"
    },
    {
      "uri": "textures/1001_normal.png"
    }
  ],
  "materials": [
    {
      "doubleSided": true,
      "name": "1001",
      "normalTexture": {
        "index": 2
      },
      "occlusionTexture": {
        "index": 1
      },
      "pbrMetallicRoughness": {
        "baseColorTexture": {
          "index": 0
        },
        "metallicRoughnessTexture": {
          "index": 1
        }
      }
    }
  ],
  "meshes": [
    {
      "name": "defaultMaterial",
      "primitives": [
        {
          "attributes": {
            "NORMAL": 1,
            "POSITION": 0,
            "TANGENT": 2,
            "TEXCOORD_0": 3
          },
          "indices": 4,
          "material": 0,
          "mode": 4
        }
      ]
    }
  ],
  "nodes": [
    {
      "children": [
        1
      ],
      "matrix": [
        0.2987746596336365,
        0.0,
        0.0,
        0.0,
        0.0,
        6.634130125996151e-17,
        -0.2987746596336365,
        0.0,
        0.0,
        0.2987746596336365,
        6.634130125996151e-17,
        0.0,
        0.0,
        0.0,
        0.0,
        1.0
      ],
      "name": "Sketchfab_model"
    },
    {
      "children": [
        2
      ],
      "matrix": [
        1.0,
        0.0,
        0.0,
        0.0,
        0.0,
        -4.371139006309477e-08,
        0.999999999999999,
        0.0,
        0.0,
        -0.999999999999999,
        -4.371139006309477e-08,
        0.0,
        0.0,
        0.0,
        0.0,
        1.0
      ],
      "name": "Collada visual scene group"
    },
    {
      "children": [
        3
      ],
      "name": "Tut_Dagger"
    },
    {
      "mesh": 0,
      "name": "defaultMaterial"
    }
  ],
  "samplers": [
    {
      "magFilter": 9729,
      "minFilter": 9987,
      "wrapS": 10497,
      "wrapT": 10497
    }
  ],
  "scene": 0,
  "scenes": [
    {
      "name": "Sketchfab_Scene",
      "nodes": [
        0
      ]
    }
  ],
  "textures": [
    {
      "sampler": 0,
      "source": 0
    },
    {
      "sampler": 0,
      "source": 1
    },
    {
      "sampler": 0,
      "source": 2
    }
  ]
}
